# xmcd
#
# Track frame offsets:
#	150
#	20925
#	39027
#	69735
#	103122
#	138745
#	160475
#	178407
#
# Disc length: 2699 seconds
#
# Revision: 1
# Processed by: cddbd v1.4PL0 Copyright (c) Steve Scherf et al.
# Submitted via: audiograbber 1.82.01
#
DISCID=770a8908
DTITLE=Ragheb Alameh - Alamtini
DYEAR=1900
DGENRE=
TTITLE0=Alamtini
TTITLE1=Ya Reit
TTITLE2=Hamdella 3al Salama
TTITLE3=Enti W Ana
TTITLE4=Raje3 La 3younik
TTITLE5=El Hdiyye
TTITLE6=3an Jad
TTITLE7=El Dal3ouna
EXTD=
EXTT0=
EXTT1=
EXTT2=
EXTT3=
EXTT4=
EXTT5=
EXTT6=
EXTT7=
PLAYORDER=
